<svg width="16060" height="12013" viewBox="0 0 16060 12013" fill="none" xmlns="http://www.w3.org/2000/svg">
<path d="M865 11194.5C475.5 11286 92.6667 11222.2 0 11194.5V0H16060V10600.5C15804.5 11109.5 15246 11493 14510.5 11380.5C13922.1 11290.5 13075.7 11623.7 12911 11739C12002 12106 11177.5 11971.2 10804.5 11929.5C9720.5 11643 8866 11829 8122.5 11929.5C7379 12030 6655.5 12110.5 5690.5 11728.5C4725.5 11346.5 4066 11349.5 3353.5 11542.5C2641 11735.5 2080.5 11498.5 1870 11358C1659.5 11217.5 1314 11089 865 11194.5Z" fill="#0068FF"/>
</svg>
