<svg width="50" height="50" viewBox="0 0 50 50" fill="none" xmlns="http://www.w3.org/2000/svg">
<path d="M0 25C0 38.807 11.193 50 25 50C38.807 50 50 38.807 50 25C50 11.193 38.807 0 25 0C11.193 0 0 11.193 0 25Z" fill="#0044E9"/>
<path d="M32.125 21.7753V24.7003C32.125 25.1128 31.9 25.4878 31.525 25.6378C30.4 26.1628 27.8125 27.2128 25 27.2128C22.1875 27.2128 19.6 26.1628 18.475 25.6378C18.1 25.4503 17.875 25.0753 17.875 24.7003V21.7753C17.875 21.2128 18.5125 20.8378 19.0375 21.0253C20.3125 21.5878 22.5625 22.3753 25 22.3753C27.4375 22.3753 29.6875 21.5878 30.9625 21.0628C31.4875 20.8003 32.125 21.2128 32.125 21.7753Z" fill="white"/>
<path d="M39.8125 28.6375C39.5125 32.425 36.2875 35.125 32.6875 35.125C31.7875 35.125 29.575 35.125 28.75 35.125L21.25 40V35.125L28.75 30.25H32.6875C33.9625 30.25 34.8625 29.35 34.975 28.2625C35.2 25.0375 35.1625 20.2375 34.9375 17.0125C34.8625 16 34.0375 15.175 32.9875 15.1C30.4 14.9875 27.7 14.875 25 14.875C22.3 14.875 19.6 14.95 17.05 15.1375C15.9625 15.2125 15.175 16.0375 15.1 17.05C14.8375 20.275 14.8 25.075 15.0625 28.3C15.1375 29.35 16.075 30.2875 17.35 30.2875H21.25V35.1625C20.5 35.1625 18.1 35.1625 17.3125 35.1625C13.7125 35.1625 10.45 32.5 10.1875 28.675C9.92501 25.225 9.9625 20.1625 10.2625 16.675C10.5625 13.1875 13.3375 10.5625 16.75 10.3C19.375 10.1125 22.1875 10 25 10C27.8125 10 30.625 10.1125 33.2875 10.3C36.7 10.5625 39.475 13.1875 39.775 16.675C40.0375 20.125 40.075 25.1875 39.8125 28.6375Z" fill="white"/>
</svg>
