<svg width="64" height="108" fill="none" xmlns="http://www.w3.org/2000/svg"><path fill-rule="evenodd" clip-rule="evenodd" d="M9.53 107.572c-1.397.031-2.642-.429-3.647-1.367-5.281-4.932-8.973-7.582-.975-15.252C16.99 79.366 28.63 67.318 40.52 55.529c1.308-1.297 1.504-1.964.067-3.386C28.092 39.782 15.69 27.327 3.263 14.896-.758 10.873-.764 8.066 3.22 4.07c.765-.767 1.5-1.565 2.306-2.288C8.049-.485 11.263-.72 13.63 1.63a9927.878 9927.878 0 0148.238 48.243c2.287 2.302 2.273 5.593-.023 7.905-16.026 16.133-32.127 32.193-48.224 48.256-1.093 1.091-2.498 1.633-4.091 1.537z" fill="#113ee0"/></svg>
