<svg width="15" height="16" viewBox="0 0 15 16" fill="none" xmlns="http://www.w3.org/2000/svg">
    <path fill-rule="evenodd" clip-rule="evenodd" d="M0.642922 14.5761C0.941905 13.0749 1.29968 11.5862 1.61672 10.0892C1.76705 9.37843 2.2571 8.87748 3.06671 8.86626C4.45833 8.84674 9.26602 8.22743 9.21689 7.77591C9.1644 7.29448 3.12004 6.6203 2.84793 6.57834C1.95308 6.44044 1.07125 2.56533 0.637887 1.37402C0.546344 1.12271 0.519891 0.908818 0.778142 0.744327C1.04353 0.598944 1.32531 0.586906 1.61547 0.642567C1.97324 0.782551 7.26468 3.76249 9.63304 4.99618C10.8496 5.63046 12.0656 6.26766 13.3027 6.86207C13.7285 7.06685 14.2043 7.27909 14.1952 7.74639C14.1871 8.14973 13.7319 8.35993 13.3443 8.55931C9.80604 10.3791 2.3373 14.5894 2.3373 14.5894C2.3373 14.5574 1.08132 15.7695 0.642922 14.5761Z" fill="#D7D7D7"/>
</svg>
