<svg width="46" height="46" fill="none" xmlns="http://www.w3.org/2000/svg"><g clip-path="url(#clip0)"><g filter="url(#filter0_d)"><path d="M41 23c0-9.941-8.059-18-18-18S5 13.059 5 23s8.059 18 18 18 18-8.059 18-18z" fill="#fff"/></g><path fill-rule="evenodd" clip-rule="evenodd" d="M27.216 31.058a1.14 1.14 0 01-1.513.1l-8.748-6.911a1.245 1.245 0 01-.346-.425 1.178 1.178 0 010-1.047c.082-.164.2-.31.347-.425l8.748-6.88a1.153 1.153 0 011.21-.12c.127.064.24.15.331.255.092.105.16.225.203.355a.982.982 0 01-.077.79 1.05 1.05 0 01-.269.313l-6.736 5.287c-.147.116-.266.26-.347.424a1.18 1.18 0 00-.001 1.048c.08.165.199.31.346.426l6.741 5.32c.114.089.207.199.274.323a.992.992 0 01-.163 1.167v0z" fill="#1B1B20" stroke="#1B1B20"/></g><defs><clipPath id="clip0"><path fill="#fff" d="M0 0h46v46H0z"/></clipPath><filter id="filter0_d" x="-7" y="-5" width="60" height="60" filterUnits="userSpaceOnUse" color-interpolation-filters="sRGB"><feFlood flood-opacity="0" result="BackgroundImageFix"/><feColorMatrix in="SourceAlpha" values="0 0 0 0 0 0 0 0 0 0 0 0 0 0 0 0 0 0 127 0"/><feOffset dy="2"/><feGaussianBlur stdDeviation="6"/><feColorMatrix values="0 0 0 0 0 0 0 0 0 0 0 0 0 0 0 0 0 0 0.12 0"/><feBlend in2="BackgroundImageFix" result="effect1_dropShadow"/><feBlend in="SourceGraphic" in2="effect1_dropShadow" result="shape"/></filter></defs></svg>