<svg width="46" height="46" fill="none" xmlns="http://www.w3.org/2000/svg"><g clip-path="url(#clip0)"><g filter="url(#filter0_d)"><path d="M5 23c0 9.941 8.059 18 18 18s18-8.059 18-18S32.941 5 23 5 5 13.059 5 23z" fill="#fff"/></g><path fill-rule="evenodd" clip-rule="evenodd" d="M18.784 14.942a1.14 1.14 0 011.513-.1l8.748 6.911c.146.116.265.261.346.425a1.178 1.178 0 010 1.047c-.082.164-.2.31-.347.425l-8.748 6.88a1.153 1.153 0 01-1.21.12 1.085 1.085 0 01-.331-.255 1.02 1.02 0 01-.203-.355.982.982 0 01.077-.79 1.05 1.05 0 01.269-.313l6.736-5.287c.147-.116.266-.26.347-.424a1.18 1.18 0 00.001-1.048c-.08-.165-.199-.31-.346-.426l-6.741-5.32c-.114-.089-.207-.199-.274-.323a.992.992 0 01.163-1.167v0z" fill="#1B1B20" stroke="#1B1B20"/></g><defs><clipPath id="clip0"><path fill="#fff" d="M0 0h46v46H0z"/></clipPath><filter id="filter0_d" x="-7" y="-5" width="60" height="60" filterUnits="userSpaceOnUse" color-interpolation-filters="sRGB"><feFlood flood-opacity="0" result="BackgroundImageFix"/><feColorMatrix in="SourceAlpha" values="0 0 0 0 0 0 0 0 0 0 0 0 0 0 0 0 0 0 127 0"/><feOffset dy="2"/><feGaussianBlur stdDeviation="6"/><feColorMatrix values="0 0 0 0 0 0 0 0 0 0 0 0 0 0 0 0 0 0 0.12 0"/><feBlend in2="BackgroundImageFix" result="effect1_dropShadow"/><feBlend in="SourceGraphic" in2="effect1_dropShadow" result="shape"/></filter></defs></svg>